/* XPM */
static char *bae5978f26ef437a8c8078764e9d8a6eqLmkHcgDFVXBY47P[] = {
/* columns rows colors chars-per-pixel */
"64 64 256 2 ",
"   c black",
".  c #010101",
"X  c #020202",
"o  c gray1",
"O  c #040404",
"+  c gray2",
"@  c #060606",
"#  c #070707",
"$  c gray3",
"%  c #090909",
"&  c gray4",
"*  c #0B0B0B",
"=  c #0C0C0C",
"-  c gray5",
";  c #0E0E0E",
":  c gray6",
">  c #101010",
",  c #111111",
"<  c gray7",
"1  c #131313",
"2  c gray8",
"3  c #151515",
"4  c #161616",
"5  c gray9",
"6  c #181818",
"7  c #191919",
"8  c gray10",
"9  c #1B1B1B",
"0  c gray11",
"q  c #1D1D1D",
"w  c #1E1E1E",
"e  c gray12",
"r  c #202020",
"t  c gray13",
"y  c #222222",
"u  c #232323",
"i  c gray14",
"p  c #252525",
"a  c gray15",
"s  c #272727",
"d  c #282828",
"f  c gray16",
"g  c #2A2A2A",
"h  c gray17",
"j  c #2C2C2C",
"k  c #2D2D2D",
"l  c gray18",
"z  c #2F2F2F",
"x  c gray19",
"c  c #313131",
"v  c #323232",
"b  c gray20",
"n  c #343434",
"m  c #353535",
"M  c gray21",
"N  c #373737",
"B  c gray22",
"V  c #393939",
"C  c #3A3A3A",
"Z  c gray23",
"A  c #3C3C3C",
"S  c gray24",
"D  c #3E3E3E",
"F  c #3F3F3F",
"G  c gray25",
"H  c #414141",
"J  c gray26",
"K  c #434343",
"L  c #444444",
"P  c gray27",
"I  c #464646",
"U  c gray28",
"Y  c #484848",
"T  c #494949",
"R  c gray29",
"E  c #4B4B4B",
"W  c #4C4C4C",
"Q  c gray30",
"!  c #4E4E4E",
"~  c gray31",
"^  c #505050",
"/  c #515151",
"(  c gray32",
")  c #535353",
"_  c gray33",
"`  c #555555",
"'  c #565656",
"]  c gray34",
"[  c #585858",
"{  c gray35",
"}  c #5A5A5A",
"|  c #5B5B5B",
" . c gray36",
".. c #5D5D5D",
"X. c gray37",
"o. c #5F5F5F",
"O. c #606060",
"+. c gray38",
"@. c #626262",
"#. c gray39",
"$. c #646464",
"%. c #656565",
"&. c gray40",
"*. c #676767",
"=. c #686868",
"-. c DimGray",
";. c #6A6A6A",
":. c gray42",
">. c #6C6C6C",
",. c #6D6D6D",
"<. c gray43",
"1. c #6F6F6F",
"2. c gray44",
"3. c #717171",
"4. c #727272",
"5. c gray45",
"6. c #747474",
"7. c gray46",
"8. c #767676",
"9. c #777777",
"0. c gray47",
"q. c #797979",
"w. c gray48",
"e. c #7B7B7B",
"r. c #7C7C7C",
"t. c gray49",
"y. c #7E7E7E",
"u. c gray50",
"i. c #808080",
"p. c #818181",
"a. c gray51",
"s. c #838383",
"d. c #848484",
"f. c gray52",
"g. c #868686",
"h. c gray53",
"j. c #888888",
"k. c #898989",
"l. c gray54",
"z. c #8B8B8B",
"x. c gray55",
"c. c #8D8D8D",
"v. c #8E8E8E",
"b. c gray56",
"n. c #909090",
"m. c gray57",
"M. c #929292",
"N. c #939393",
"B. c gray58",
"V. c #959595",
"C. c gray59",
"Z. c #979797",
"A. c #989898",
"S. c gray60",
"D. c #9A9A9A",
"F. c #9B9B9B",
"G. c gray61",
"H. c #9D9D9D",
"J. c gray62",
"K. c #9F9F9F",
"L. c #A0A0A0",
"P. c gray63",
"I. c #A2A2A2",
"U. c gray64",
"Y. c #A4A4A4",
"T. c #A5A5A5",
"R. c gray65",
"E. c #A7A7A7",
"W. c gray66",
"Q. c #A9A9A9",
"!. c #AAAAAA",
"~. c gray67",
"^. c #ACACAC",
"/. c gray68",
"(. c #AEAEAE",
"). c #AFAFAF",
"_. c gray69",
"`. c #B1B1B1",
"'. c #B2B2B2",
"]. c gray70",
"[. c #B4B4B4",
"{. c gray71",
"}. c #B6B6B6",
"|. c #B7B7B7",
" X c gray72",
".X c #B9B9B9",
"XX c gray73",
"oX c #BBBBBB",
"OX c #BCBCBC",
"+X c gray74",
"@X c gray",
"#X c gray75",
"$X c #C0C0C0",
"%X c #C1C1C1",
"&X c gray76",
"*X c #C3C3C3",
"=X c gray77",
"-X c #C5C5C5",
";X c #C6C6C6",
":X c gray78",
">X c #C8C8C8",
",X c gray79",
"<X c #CACACA",
"1X c #CBCBCB",
"2X c gray80",
"3X c #CDCDCD",
"4X c #CECECE",
"5X c gray81",
"6X c #D0D0D0",
"7X c gray82",
"8X c #D2D2D2",
"9X c LightGray",
"0X c gray83",
"qX c #D5D5D5",
"wX c gray84",
"eX c #D7D7D7",
"rX c #D8D8D8",
"tX c gray85",
"yX c #DADADA",
"uX c gray86",
"iX c gainsboro",
"pX c #DDDDDD",
"aX c gray87",
"sX c #DFDFDF",
"dX c gray88",
"fX c #E1E1E1",
"gX c #E2E2E2",
"hX c gray89",
"jX c #E4E4E4",
"kX c gray90",
"lX c #E6E6E6",
"zX c #E7E7E7",
"xX c gray91",
"cX c #E9E9E9",
"vX c #EAEAEA",
"bX c gray92",
"nX c #ECECEC",
"mX c gray93",
"MX c #EEEEEE",
"NX c #EFEFEF",
"BX c gray94",
"VX c #F1F1F1",
"CX c gray95",
"ZX c #F3F3F3",
"AX c #F4F4F4",
"SX c gray96",
"DX c #F6F6F6",
"FX c gray97",
"GX c #F8F8F8",
"HX c #F9F9F9",
"JX c gray98",
"KX c #FBFBFB",
"LX c gray99",
"PX c #FDFDFD",
"IX c #FEFEFE",
"UX c white",
/* pixels */
"m.m.N.v.b.W.oX{.[.oX].E.U.F.S.Y.^.&XXX[.+XQ./.'.].!.G.H.T.E.(.}..XW.Z.S.I.Q.Z.J.A.D.!.{.).F.N.T.)._.^.A.g.b.S.n.F.N.N.A.p.8.x.n.",
"u.v.F.S.Z.R.].`.T.K.F.P.Y.S.C.U.].-X X~.`.T.~.W.(.E.F.F.R./.].{._.I.H.K.!.T.S.P.G.F.W.'.~.Z.m.Y.'.XX(.m.h.k.v.G.F.z.c.c.a.h.N.B.",
"x.Z.G.J.E.`._.Q.W.Z.b.S.P.J.K.E._.-X@X!.L.S.E.T.).Q.P.K.E.(./.W.~.J.J.G.E.F.D.E.H.S.I.!.T.N.b.U./.'./.B.l.c.C.].G.z.n.k.h.S.G.A.",
"J.I.J.P.{.oX/.P./.L.Z.S.I.^.(.W.~.+X#X).G.Z.E.!.|.(.^.!.!.~.T.P.W.L.D.C.J.Z.Z.I.J.C.F.T.T.S.V.E.`.R.(.L.l.v.H._.L.A.Z.c.x.K.I.Z.",
"G.E.R.Q. X|.Q.Y.T.P.J.P.!.{.'.R._.[.{.].E.R.`.{.$X'.[.].^.Q.T.Q.R.E.D.D.H.K.A.S.J.B.A.Y.^.R.I._.).P.R.L.M.B.K.^.T.Y.Z.c.v.G.U.m.",
"~._.~.~.|.}.^.^.Q.Y.I.Q.`.'.(.^.[.].]. X_.].OX:X-X]..X{.Q.R.E.'.(.`.H.H.P.Q.P.H.D.B.S.R.'.]./.{./.!.H.D.I.U.T.'.R.Y.m.x.m.G.Y.n.",
"+X{.E.E.|.oX]._.].^.E.(.{.^.E._.}.{.{.OX}.oX$X5X*X].OX}.Q.!.^.}.|. XY.L.W.!.!.R.S.A.P.^..XOX{..X.X|.K.K././.).^.K.J.A.V.F.T.R.D.",
"}./.I.W. XOX[.)./.(.~._. X^.P.W.oX{._..X+X;X$X:XOX`.$XoX).{.{.oX|.|.^.W.].Q.~.R.G.L.~.{.$X*XoX+X X).H.E.).}.=X^.C.D.R.U.R.).W.W.",
"oX^.W.E.[.|.oX].Y.W.~.(.oX|.Y.Y.{.oXoXXX+X%X=X,X;XoX%X@XoX X#X|.+X{.].^.(.[././.L.Q.W.@X$XXX.X@X.XI.W._..X#X-X_.Y.Q.~._.!.).+X_.",
"[./.(.!.[. XoX).T.R.!.).oXOX_.(.XX$X$X#X%X=X>X4X:XoX#X%X%X XOXXX}.[.{.^.^.]./.^.`.'./.oX@X{.`.`.`.U.).+X<X1X<X}.'.Q.(.{.[.[.}.|.",
"/.).].(.]. XoX).!.W.`.|.OX#X{.(.$X*X%X+X+X#X&X:X>XoX XXX$X].]..X.X X|.(.^.[.[.}..X].).{.XX_.(.!.T.Y.{.-X3X>X=XoX|.`.|.`.[.OX`.).",
"~.`.|.[.].|.oX}.].).XXOX X+XoX].<X2X>X*X=X=X*X-X:X+X[._.XX).(. X.X{.`././.(.).`.{././.^._.W.~.E.L.Q..X-X;XoXXX%X.X.X.X`.|.OX(.Y.",
"^.`..XOX}.|.oXOXXX}.$X+X{.$X:X=X1X3X1X<X3X<X*X#X=X&X X).OX}.[..X X_.~.'.}.'.).(.`.!.(.W.Y.J.T.T.T.).+X,X;X X[.%X@XoX[.OX$X{.^.Y.",
").[.oX%X X.XoX@XoXOX<X:X#X,X5X1X:X<X<X<X3X:XoX].#X;X%X}.&X#XoX.XXX(.U.).XXoXOXoX(.W._.!.P.U.!./.(.].+X3X:X}.!.].oX@X X#X#X{.].Y.",
"{.oX+X@X].XX+X$X#X=X9X7X1X8X7X<X<X3X1X,X1X;X@XXX*X<X>X+X*X#X.X].XX).K.R.[.XX@X}.E.P.!.~.Y.'. XOX].{.+X4X&X`.E.`.+X&X-X%XoXOX.XQ.",
"oX%X+X X^.XX$X*X>X1X9X3X1XqXqX6X:X,X;X&X=X-X;X,X3X6X4X%X&XXX[.(.#XXX~./.|.XX}.I.K.A.L.W.Y.oX#X&X{.|.$X6X@X_.`.*X1X%X3X1X$X@X X}.",
" X%X.XK.L.[.OX*X5X1X3X9X:X8XqX1X+X&X*X>X@X*X,XwX3X5X2X&XoX#X+X`.$X#X(.(.].~.(.'.R.F.D.!._.[.&X=X.X$X-X:X-X+XOX*X:X,X1X%XoXOX}.{.",
"(.[./.D.H.(.{.+X7X3X4X4X=X1X3X-XOX@X@X$X|.*X4XrX9X8X9X3X$X}.[.'.#XoX`..X.XW.Q.].(.~.Y.I.Y.`.OX`.}.$X=X-X;X#X$X1X9X<X:X#X X[.[.@X",
"U.Q.R.F.K.~.].%X8X4X4X:X-X:X2X:X&X$X*X;XOX,XqXeXeX1X1X8X1XOX{.{.XXXX[. XXX`./.^.|. X^.I.T.{.@X(. X;X:X*X;X=X;X8X5X:X-X@X}.`.`.XX",
"Z.J.L.D.J.E.`.;X6X4X5X=X:X;X3X<X+X|.$X:X$X;X6X3X7X%X&X6X6X*X+X#X$X.X]..X#XXX'.^.#XXX(./.'.XX#X X+X4X<X+X&X>X1X7X-X;X:XXX].{.'.].",
"F.K.L.H.T.(.}.:X1X3X8X,X1X;X,X=X.X(..X*X#X%X2X,X>X$X;X7X3X*X*X,X3X}.[.:X,X|.(.}.#X.X).].oXXXoX X#X6X,X|.+X2X6X3X;X;X-X.X].{.'.'.",
"U.T.Y.P.^. XXX=X-X<XqX0X5X1X,X%X@X[.oX$X%X&X3X2X;X%X:X7X6X<X<X2X<XXX%X3X=X'.^.|.|. X_.].OX+XOX}.&X4X,X.X+X6XqX3X=X@X$X@X.X'.Q.^.",
"K.!./.T.~.|.XX&X;X<XqXyX3X3X<X$X}.{.@X@X=X;X4X,X-X#X-X8XqX7X3X1X;X%X1X>XXX[.`.}.`.}.).].@X$X@XoX;X,X,X&X$X2X9X<X+X X+X@XoX'.T.Y.",
"J.[.#X'._.oX&X4X2X3X0XrX=X:X;XOXE.].*X*X4X9XwX1X$X$X2XrXqX1X<X3X5X%X,X>XoX{.{.@X'.]./.{.$XOXoX#X:X*X>X:X#X=X<X=XOXoXOX{.[.{.~.T.",
"Y. X%X[.W.&X2X3X1XqXiX8X&XOX+XOXXX).>X3X2X0XuX8X2X,X7XiX2X5X3X-X>X$X:X,X#X'.$X&X}.^.).+X[.XX$X-X*X&X5X-X<X>X*X;XoX X+XoX)._.].Q.",
"[. X}.^.R.@X;X<X5XrXuX7X=XOX#X=X$X}.,X6XqXyXiX9X4X4XyXiX9X5X7X<X$X@X,X*XoX{.#X*XOX)._.OX.X@X*X=X*X&X1X5X6X$X&X=X&XXXOXOX].[..X{.",
"XX|.'.`.'.*X-X1X6XrXtX7X>X+XOX;X:X@X<X7XpXaXuX9X8XwXdXrXwX3X5X<X$X*X7X&X+X+X#X=X#X[..X$X%X$X:X:X%X#X*X0X6X.X%X=X&X XOX*X+X X.X|.",
"[.[.[.}. X&X$X:X;X4X4X3X<XoX].@X2X:X2X8XfXdXuXwXqXiXpX9X0X4X3X3X:X>XeX;X=X*XOX*X$X+X>X<X>X$X>X1X-X$X;XwX7X#X;X3X@X{..X-X&X.X}.|.",
"+X$XOXOX@X>X$X-X;X<X<X4X7X&X.X&X6X6X6X8XfXsXsXiXwXpXqX7X6X0X5X0X2X:X0X,X,X&X|.#X=X-X7X7X5X*X:X,X:X&X1X6X1X-X#X,X&X X X$X#X|.}.oX",
"&X:X=X-X2X0X=X*X<X<X>X3X7X,X-X3X6X9X7X5XyXyXdXpXyXpX7X7X4X8X2X9X4X=X5X3X3X*XoX$X2X1X5X7X7X>X=X*X:X>X3X<X:X>X}.+X;X&X$X&X#X{.).`.",
"}.@X#X*X<X4X+X%X,X-X*X-X-X*X:X5X4X9X6X1X8XqXdXrXiXyXqX0X8X3X1X6X5X;X5X8X6X;X>X>X7X6X2X3X<X;X#X%X4XwX3X<X3X2XoX+X=X:X;X*X+X].Q.R.",
"}.@X@X#X$X&XXX<X6X1X<X<X-X=X2X0X5XqX7X1X6X0XgXqXtXqXtXrXyX4X7XqX5X,X7XqX7X>X8X4X6X9X2X2X&X#XXX*X2XtX&X*X1X>X+X+X#X-X%X.X}.'./.~.",
" XoX.X@X[.}.OX$X>X2X3X6X&X%X2XdXqX6X8X9X3X2XqXsXpXwXeXaXsXiXrX0X9X0XeXrX8X3X0XsX0X7X,X<X&X=X=X<X,X*X+X+X,X1X+X.X=X*X+XXX'./.].`.",
"OX+X X|.(.}.+X%X&X>X1X3X#X#X>XuX7X4X7X9X4X1X9XuXtX7X8XtXuXtXrXqXqX0X0X9X6X6XwXsXyXwX2X=XXXOX;X9X*X X}.+X,X1X#X@X;X&X+X+X{.).[.[.",
";X&X X].^..X&X;X%X>X1X4X*X*X<XyX9X6X0XrX9X7XeXpXtX6X7XeXtXrXtXrXwX0X7X6X8XwXiXdXfXtX7X>X:X;X1X3X%X`.'.OX;X,X%X$X:X#XXX$XoX]. X X",
"6X*X}.'.(.+X*X>X*X>X,X4X:X1X6XuX0X7XqXrXqXqXuXdXrX4X4XqXqX8X9X9X0X9X8X7XwXpXgXhXzXsXuX9XtX0X8X1X=X[.{.+X*X,X-X$X:XoX}.&X=XoX+XOX",
"5XOX_._.).+X@X-X*X-X=X<X>X6X8XtX7X4X6X9X7X0XiXdXpX9X9XtXeX7X6X8X7X7X6X7XqXpXjXlXxXzXzXuXiXwXrX0X>X+X+X@X&X3X2X;X>X.X[.-X1X*X%X@X",
"-X{._.`._.@XXX$X&X*X$X;X>X8X0XeX9X5X6X9X8XeXsXhXdXeXeXpXtX8X7X9X6X5X4X5X0XyXfXkXlXzXlXsXaXiXeX5X<X-X-X&X:X9X0X7X3X+X|.>X5X;X*X@X",
" X].|.'.).$XXX+X&X-X*X>X,X0XwXrX0X7X0XeXeXuXfXhXtX7X8XtXqX4X4X8X9X6X6XqXyXuXaXdXfXjXgXhXgXgX9X=X3X1X1X,X5XwXqXyXqX:X$X2X4X=X%X@X",
"/.'.OX'.~.$XXXoX&X:X;X1X<XqXwXtX7X5X9XwXeXtXpXpXyX7X9XuXrX8X0XtXeX9XwXaXhXdXiXuXpXzXlXlXiXpX7X,X7X6X5X4X0XwX9XpXuX5X:X4X1X$X$X+X",
")._.}.XX].=X;X;X-X;X,X6X:X6XwXtX4X8X0X8X7XrXiXeXpXwX9X,XeXwX8X9XrXrXpXjXzXgXpXiXaXzXlXdXsXqX,X:X3X7XqX9XyXrX3XyXaX8X,X<X2X>X%X@X",
"XX{.@X=X@X%X=X1X3X1X5X0X1X3X7X8X<X3X9XqX0XyXsXiXsXtXeX1X8X0XqXeXtXtXpXkXzXgXuXtXsXlXkXsXiX7X-X&X3X9XeX8X0X7X,XwXfXtX8X5X2X;X%X%X",
"&XOX;X-X%X$X-X3X7X2X0XeX7X<X5X5X2X5XwXtXeXeXuXiXsXuXpX6X5X9XeXwXeXeXuXgXkXgXaXpXdXkXkXsXyX6X;X*X1X0XyX0X7X<X-X7XsXiXtXwX5X>X-X-X",
"=X*X,XoX+X&X<X3X3X>XqXrXqX<X8X9X9X8XrXiXrXqXtXpXpXyXsXwX7XeXwX4XqXwXtXaXdXdXfXhXgXjXjXdXuX0X3X1X,XqXpXtX7X,X:X6XwXeXeXeX0X4X>X=X",
":X=X;X X#X-X2X4X2X:X0XeX9X,X9XeXwX8XwXpXuXtXaXhXuXrXuXrXqXaXwX<X0XwXyXiXuXuXaXgXjXhXgXsXtX0X7X5X4XtXaXyX7X1X5XwX8X9XqXrXyXqX,X#X",
"3X=X&X$X,X<X<X9X0X4X0X0X4X,X8XqXrX8XqXpXsXaXdXhXuXeXwXwXqXsX0X2X4X8XeXtXtXuXaXgXjXdXdXpXqX7X6X4XwXiXuXeX5X2XeXuXeXrXrXiXsXuX1XOX",
"4X:X%X&X<X6X2XrXpX0X6X7X<X5X0XqX0X4X8XiXdXdXaXyXtXtXqXqX9XrX1X1X3X5X6X8XwXuXfXjXfXiXaXpXqX7X8X5XeXuXqX9X4X5XiXiXyXuXuXuXpXtX1XOX",
",X1X%X+X*XqX8XuXfXwX2X4X>XqXtXrX2X:X3XyXfXgXpXqXwXyXeXwX6X6X$X;X0X7X2X2X7XtXdXhXaXrXpXsXeXqXeX0X9XwX7X8X5X7XaXyX0XeXeXqX0X7X:XOX",
"2X-X&X#X,XtXrXwXpX0X5X5X8XrXiXuX8X:X3XyXjXgXrXrXqXyX0XtX7X8X7X9XqXwX5X,X7XyXiXuX7XuXuXpXaXrXeX0X7X8X3X7XrXtXeX3X3X8XwX7XtX9X-X[.",
"1X;X-X=X4XiXyXrXwXtXrX7X5XyXsXyX3X:X4XrXpXuX0XeX0XuXrXtX2X1X3X0X1X8X7X3X7XeXtXyX:X0XtXaXdXtXeX0X4X8X5X9XtXuXrX2X:X1X9X7XwX5X>XXX",
";X*X;X>X7XiXyXrXwXtXyX0X8XtXpXwX:X>X8XwXwXwX0XyXiXdXpXrX<X>X<X7X5XwXqX7X9XqX7X5X<XwXrXyXtXqXwXeX7X8X4X9XyXtX8X&X=X>XwXqX8X<X:XXX",
"&X$X-X:X5XrXeXtXiXwXwXtXeXqX0X8X-X,X0X0X8XqXwXaXgXsXuX9X1X2X1X7XtXtX0X7XqX0X1X*X3XtXyXtXwX7XqXrXeX8X1XqXpXrX4X$X;X4XsXrX2X=X&X`.",
"#X+X*X;X2X0XwXiXpXtXuXiXwX6X5X5X,X2X9X8X7XwXrXsXaXrXrX4X2X4X5XwX0XwX9X8XeXqX1X=X<XtXiXiXrX7X9XqXeX7X3XyXsXqX7X4X2XwXjXqX;X%X&X).",
"oXXX%X-X<X7XwXsXeXaXhXiX6X5X8X5X9X7XqX9X9XrXyXfXpXrXsX8X4X4X5XrX6XeXyXyXyXwX6X4X9XaXiXtX9X3X8XqX8X6X6XyXeX<X3X9XqXpXhX7X-X*X;X X",
"`.'.+X*X:X3X8XaXwXuXsXtX7X7X0X7XeX7X9X8X9XeXtXfXsXtXjXwXqX9X4X9XqXuXpXyXtXwX9XqXsXkXiX9X2X,X9XyX8X9X7XwX9X1X4X6XuXpXpX3X:X$X$XXX",
"W.!. X$X=X>X3XtXuX8X8XeXwX9X9X9X0X2X3X3X5X9XwXsXpX0XsXqXuXyX5X5XuXuXqX7X0XwXqXeXpXjXpXqX6X4XeXpXrXeX8XwXyXyXyX9XuXtXwX<X;X X]._.",
"T./.`.+XOX|.>XqXpX9X9XqX9XuXiX3X3X=X3X5X4X5XyX0XrXqXrXwX9X7X2X4XuXtX9X1X,X5XrXpXdXdXgXiX5XrXtXaX0X0X0XiXjXaXwXuXuXaX7X-XoX X|.Y.",
"I./.'.$X=XOX*X3X8X1X5X0XqXiXuX1X*X#X2X5X5X5XuXrXeX0XwXwXrXrX9XqXuXtX9X<X=X;X4XqXiXyXiXpXwXuXwXrXrXqXqXyXsXyXwXtXtXyX6X*XoX.X`.G.",
").{.[.$X,X@X@X,X6X2X7XqXqXrX9X=X*X*X8X0X8X5XyXyXwX8X8X9XyXiXqXeXeXqX7X<X-X:X8XiXuX0X0XiXiXaX8X7XeX8XqXyXyXrXuXpXuXeX7X&XOX%X].J.",
"{. X].oX,X%XoX;X9X9XeXrX0X9X3X$X:X;X8X0X0X6XyXiXtX0X7X8XiXaX0XqXdXuX0X2X:X,X8XyXuX7X4XyXaXpX1X2X0X7XwXyXqXeXsXgXdXwX5X+XXX*X].P.",
"Q.^.!.].;X=XXX*X5XqXuXiXeX9X3X-X-X&X,X1X7X6XyXaXaXyXqX0XfXgX0XwXpXrX8X3X3X6X9XqXwX4X2XrXpXeX&X-XeX0XwX0X3X7XaXhXgX0X1XoX X#X/.H.",
"Q.E.U.T..X*X#X:X1XqXiXuXeX8X1X;X>X%X&X*X4X3X0XrXpXuXqX0XgXgX9XeX9X8X4X3X8XtXwX5X2X<X<XeXuX9XoX#XeX0X6X<X:X5XiXjXaX8X<X%X#X@X).J.",
").W.P.F.^.&X>X7X4XqXeX9X6X2X;X*X3X=X%X%X2X>X1X4XeXrX9X8XdXaX5XqXeXeX7X<X4XqX6X*X=X;X:X9XyX8XoX$XqX9X<X-X<X9XtXaXyX6X:X;X*XXX).K.",
"!.U.P.F.!.;X5XqX7X0X5X,X>X:X=X*X1X*X$X$X<X=X=X:X9XeX9X7XaXiX3XqX9X0X1X&X:X9X7X-X*X;X-X6XrX0X#X;XeXqX1X:X6XwX9X9XtX6X&X=X+X/.T.V."
};
