/* XPM */
static char *_ef5328d01be4675b22c4319bbe225ffaElGTY6PSehXaPy4[] = {
/* columns rows colors chars-per-pixel */
"64 64 256 2 ",
"   c black",
".  c #010101",
"X  c #020202",
"o  c gray1",
"O  c #040404",
"+  c gray2",
"@  c #060606",
"#  c #070707",
"$  c gray3",
"%  c #090909",
"&  c gray4",
"*  c #0B0B0B",
"=  c #0C0C0C",
"-  c gray5",
";  c #0E0E0E",
":  c gray6",
">  c #101010",
",  c #111111",
"<  c gray7",
"1  c #131313",
"2  c gray8",
"3  c #151515",
"4  c #161616",
"5  c gray9",
"6  c #181818",
"7  c #191919",
"8  c gray10",
"9  c #1B1B1B",
"0  c gray11",
"q  c #1D1D1D",
"w  c #1E1E1E",
"e  c gray12",
"r  c #202020",
"t  c gray13",
"y  c #222222",
"u  c #232323",
"i  c gray14",
"p  c #252525",
"a  c gray15",
"s  c #272727",
"d  c #282828",
"f  c gray16",
"g  c #2A2A2A",
"h  c gray17",
"j  c #2C2C2C",
"k  c #2D2D2D",
"l  c gray18",
"z  c #2F2F2F",
"x  c gray19",
"c  c #313131",
"v  c #323232",
"b  c gray20",
"n  c #343434",
"m  c #353535",
"M  c gray21",
"N  c #373737",
"B  c gray22",
"V  c #393939",
"C  c #3A3A3A",
"Z  c gray23",
"A  c #3C3C3C",
"S  c gray24",
"D  c #3E3E3E",
"F  c #3F3F3F",
"G  c gray25",
"H  c #414141",
"J  c gray26",
"K  c #434343",
"L  c #444444",
"P  c gray27",
"I  c #464646",
"U  c gray28",
"Y  c #484848",
"T  c #494949",
"R  c gray29",
"E  c #4B4B4B",
"W  c #4C4C4C",
"Q  c gray30",
"!  c #4E4E4E",
"~  c gray31",
"^  c #505050",
"/  c #515151",
"(  c gray32",
")  c #535353",
"_  c gray33",
"`  c #555555",
"'  c #565656",
"]  c gray34",
"[  c #585858",
"{  c gray35",
"}  c #5A5A5A",
"|  c #5B5B5B",
" . c gray36",
".. c #5D5D5D",
"X. c gray37",
"o. c #5F5F5F",
"O. c #606060",
"+. c gray38",
"@. c #626262",
"#. c gray39",
"$. c #646464",
"%. c #656565",
"&. c gray40",
"*. c #676767",
"=. c #686868",
"-. c DimGray",
";. c #6A6A6A",
":. c gray42",
">. c #6C6C6C",
",. c #6D6D6D",
"<. c gray43",
"1. c #6F6F6F",
"2. c gray44",
"3. c #717171",
"4. c #727272",
"5. c gray45",
"6. c #747474",
"7. c gray46",
"8. c #767676",
"9. c #777777",
"0. c gray47",
"q. c #797979",
"w. c gray48",
"e. c #7B7B7B",
"r. c #7C7C7C",
"t. c gray49",
"y. c #7E7E7E",
"u. c gray50",
"i. c #808080",
"p. c #818181",
"a. c gray51",
"s. c #838383",
"d. c #848484",
"f. c gray52",
"g. c #868686",
"h. c gray53",
"j. c #888888",
"k. c #898989",
"l. c gray54",
"z. c #8B8B8B",
"x. c gray55",
"c. c #8D8D8D",
"v. c #8E8E8E",
"b. c gray56",
"n. c #909090",
"m. c gray57",
"M. c #929292",
"N. c #939393",
"B. c gray58",
"V. c #959595",
"C. c gray59",
"Z. c #979797",
"A. c #989898",
"S. c gray60",
"D. c #9A9A9A",
"F. c #9B9B9B",
"G. c gray61",
"H. c #9D9D9D",
"J. c gray62",
"K. c #9F9F9F",
"L. c #A0A0A0",
"P. c gray63",
"I. c #A2A2A2",
"U. c gray64",
"Y. c #A4A4A4",
"T. c #A5A5A5",
"R. c gray65",
"E. c #A7A7A7",
"W. c gray66",
"Q. c #A9A9A9",
"!. c #AAAAAA",
"~. c gray67",
"^. c #ACACAC",
"/. c gray68",
"(. c #AEAEAE",
"). c #AFAFAF",
"_. c gray69",
"`. c #B1B1B1",
"'. c #B2B2B2",
"]. c gray70",
"[. c #B4B4B4",
"{. c gray71",
"}. c #B6B6B6",
"|. c #B7B7B7",
" X c gray72",
".X c #B9B9B9",
"XX c gray73",
"oX c #BBBBBB",
"OX c #BCBCBC",
"+X c gray74",
"@X c gray",
"#X c gray75",
"$X c #C0C0C0",
"%X c #C1C1C1",
"&X c gray76",
"*X c #C3C3C3",
"=X c gray77",
"-X c #C5C5C5",
";X c #C6C6C6",
":X c gray78",
">X c #C8C8C8",
",X c gray79",
"<X c #CACACA",
"1X c #CBCBCB",
"2X c gray80",
"3X c #CDCDCD",
"4X c #CECECE",
"5X c gray81",
"6X c #D0D0D0",
"7X c gray82",
"8X c #D2D2D2",
"9X c LightGray",
"0X c gray83",
"qX c #D5D5D5",
"wX c gray84",
"eX c #D7D7D7",
"rX c #D8D8D8",
"tX c gray85",
"yX c #DADADA",
"uX c gray86",
"iX c gainsboro",
"pX c #DDDDDD",
"aX c gray87",
"sX c #DFDFDF",
"dX c gray88",
"fX c #E1E1E1",
"gX c #E2E2E2",
"hX c gray89",
"jX c #E4E4E4",
"kX c gray90",
"lX c #E6E6E6",
"zX c #E7E7E7",
"xX c gray91",
"cX c #E9E9E9",
"vX c #EAEAEA",
"bX c gray92",
"nX c #ECECEC",
"mX c gray93",
"MX c #EEEEEE",
"NX c #EFEFEF",
"BX c gray94",
"VX c #F1F1F1",
"CX c gray95",
"ZX c #F3F3F3",
"AX c #F4F4F4",
"SX c gray96",
"DX c #F6F6F6",
"FX c gray97",
"GX c #F8F8F8",
"HX c #F9F9F9",
"JX c gray98",
"KX c #FBFBFB",
"LX c gray99",
"PX c #FDFDFD",
"IX c #FEFEFE",
"UX c white",
/* pixels */
"Q . r 1 5 8 = 0 1 3 > & , 8 1 X @ & = * # # - < 6 * % 4 0 < % % < $ 7 z   ; p h l 4 e c e * % + O r = 0 1 e q = , 0 3 < w 5 % - ",
"j h q 5 9 5 + * q < $ # & - 1 7 6 4 1 > ; - = = & & = &   . q D h & ; b c c a 3 q   + e 7 % @ # 7 m & @ * < +   X > w h k 9 = - ",
"% T & O = > > 1 t = X % % o > s e 7 2 1 3 2 > = 9 6 0 i s p f x t : 2 9 6 . * q C r , - + $ 2 6 i - # y & @ , $ t ; = q a u 6 * ",
"< ( q > 0 i x d 7 & + * = # : w 4 < : > 1 3 2 , e < - 6 s i :     @ 2 1 a % # , > 8 0 < ; 7 8 =   @   X 1 = & d f ; + % ; r s 2 ",
"8 h c t s d l 1 < > * # * < 2 > 1 < > ; - ; > , i r 4 - * > 5 7 $ t s & 7 = < 0 m f 5 , 6 8 > $ -   4 >   d I t X - q 2 X 2 g t ",
"4   r > : 5 r # 1 8 < . @ 9 w > q 8 2 ; % $ % * . , 7 > o X # & + f j - 0 C $.a.k.Y - = w , $ 8 %   > 5 b k 8 7 = 9 y 1 + < r 0 ",
"q X 3 ; o 5 u 7 , q 8 % & w i 7 u 9 > & $ & & & @ e n b g t 1 @ q j w 2 7 h t 5 E a @ 2 g 5 # 6 f + L | U l h 9 z i : @ ; 1 2 9 ",
"1 5 < 8 X 2 , & * 9 r 4 3 r p e r 1 @ o & > , ; > d b p 5 6 e y p F F B 3 9 9 g 0 a 8 : 4 < - 9 o t | a o # <   i 7 $ = 7 - - h ",
"6 3 5 o   3 e l 1 p < 8 a j < 0 7 e 1   @ 3 + & = 6 9 < - 5 p j 2 f n p 2 6 k G g a w o - # = + g _ m + < 8 - 4 i t % . ; $ = l ",
", e N l y u 8 t r 3 9 c 0 s 0 o , p f - $ - o < ; < 9 p g p 7 : O < 0 8 3 9 j C s p 2 o p 9 q k W x -   % 7 r e 8 O   # * & ; < ",
"# 5 x p 1 : & 6 p 1 2 h 8 j d 1 - 7 r ; : 4 @ & < 4 e d l M U [ H C x s e w p l y # j Y Q T { H f + = 0 ; 4 u : 9   O 0 4 5 7 + ",
"< 3 u 2 + # : d N m * @ - <   = : < 9 : 1 e 1 < 6 q w w a S { :.n j d h h h z N z & y i 2 2 l < 4 @ 1 3 o 4 g 2 :   + 7 3 ; = X ",
"4 , 0 2 * = > s ( ^ d p g j 3 s 1 0 l q - 4 9 s g h s f C T C w $ > r k v x c m j L h   q > & q 2 > * = 4 r q , = 1 < 4 0 = $ e ",
"w ; < = @ # & u j 7 q B u l f 0 q 6 p 6 % 1 3 6 t u t y x A x 7 y g k i 9 0 u f ; j y   q 9 7 e # ; = 2 r = . 5 7 d e 9 y < 1 Z ",
"h 4 4 : % & , l l 0 t C e u q < q * 5 6 3 i q > 2 3 q a s u a l d c g 1 % 5 f x V e t * @ 2 v 9 < 7 2 * @   - z t 0 3 2 > @ ; p ",
"6 & 2 2 - $ $ u e a ; 3 9 9 = g > = j c s b m c C v K $.@.B 4 ; u N C d y x C M y 1 6 3 s y i 2 , q i 0 9 d a , N 5 4 9 $ + < : ",
"# , : 3 = X 7 a u 7 < 1 3 1 , , < f g 2 O O 4 x :.<.S b T l : = < 5 3 d I J v V q 5 y > < a 6 8 , 3 2 < 6 w 1 . o e - & = s 8 w ",
"; 1 % * @ O r x 1 : : 2 3 < : > * < > < t u 4 : ( } A n B e 1 5 e f p s v g r g , 6 j l s 0 = - > i k 0 @ . # * 3 - 3 > s 5 r s ",
"& < - 3 1 - w y * & * ; ; - : 3 4 r q 6 9 3 & % j m c D J B S C 8 f d e q 7 8 i 6 y f v t @ = 5 % 1 7 3 3 7 8 3 ;   = > 0 = w i ",
"= 2 : 6 6 > 6 1 : = % # + $ 1 e 6 i y 5 2 6 f H z s a N x t q X & 5 7 , > 3 5 4 7 d w i 1   5 e 8 1 ; 2 p h 9 O = : , w @ y k z ",
"4 5 @ # $ $ 5 3 ; = * * % * 6 p e w 4 7 g b N G q , 2 f y w a - > : ; - < 8 1 X % u q t 7 ; e 3 , 2 4 5 8 0 7 3 < 4 2 0 . e l x ",
": < o o + # 3 > @ % > 3 3 1 6 r < 2 5 p B v w 4 A b l n u r N c p 3 , 6 r g u * , t q 7 6 0 y 4 = > < : - , q s 8 % 2 ; 9 , a s ",
"; 4 * = = * 4 ; * - 1 7 5 < , 3 + , 0 f v f e i i e 5 t y g Y W m 9 3 w t g k w k y 0 - = 5 6 e t 9 2 > : > > , q 5 0 8 F C N d ",
"i a > # O & w 0 6 3 3 3 , * & - A N g i s u u x z u = 2 q q a q S q 2 6 : 2 e 9 B q w > * > @ 9 = > 5 0 9 7 7 0 + y 1 e F *.G q ",
"8 2 w o + > p % @ e s q * + < k x 8 8 x 4 a c z d x 0 = w f u p 0 7 3 e v m z v > 7 7 : ; 4 1 # r 2 ; 3 9 0 y h : o q b ' I o 5 ",
"; e i % & 0 y # : 5 0 1 a m z : 3 & 7 V 9 6 , & 8 8 5 e p < > k u 8 w M E R v 8 1 2 5 0 8 2 , 1 7 1 ; > < 2 6 q M V m h b / -   ",
"% x a - : f y 4 & @ q < d v G 7 9 > 0 Z 0 2 > 3 , t u w t u a v t 5 u z p r 0 * 5 ; 2 a i , * 4 : , : & % : 1 2 - x g - @ { v , ",
"> B w * : s 7 f 8 % N B D p G z 3 % ; g > % = w : u j g n G C h h w k c 4 1 y 9 4 = > y p 2 % - = 1 < % $ < 8 8 $ r r . @ ( Z $ ",
"e C 8 < 5 9 $ j p = V P ( z V 9 > - 2 v e 1 % 5 , 1 h T R n i t < X 4 d 0 9 9 O > = - 4 r r 2 $ 3 8 5 - * 5 t y f q d q H ' K : ",
"x D a t f 6 O p 8 1 x z F V P g 0 8 4 h r 8 * 1 0 i V D d 9 e t 7 5 h V g t w , = : - ; 0 g y : 0 0 5 , > 5 w t 5 > m G $.L T L ",
"n C g 9 h 6 ; e 7 u m n M b F J E P x V C Y F U j B G s $ 2 d r 3 e j h 7 & = 2 : 1 , - 3 i i 8 4 , ; > 1 1 4 8 2 q B U ) 0 u P ",
"g h r O 9 > 2 9 2 6 a G Z 7 o , g d , 9 s G N Z M p l n q < 7 6 8 t p j v s 6 6 3 4 2 : > 5 q w & X o - 2 , > 3 j g q n I w = a ",
"0 p @ o ; ; 7 -   4 b ! s 5 # - f c , i 1 k  .Q b s w - n 8 o q B M h i t 7 8 g : : t = - 4 h : & ; 8 4 : y j 4 ; = l 5 i a q 8 ",
"z l * & w u p 1 f e 7 f 1 1 * : r n q s = < z.U 3 4 w 0 k 5 % l a s y e r 4 > 7 2 - q z 0 < 4 9 0 4 e g w : : 2 ; < e k n q 2 % ",
"h j > = q i p 7 n w 1 y 1 > * : i y p t 3 D E - 2 2 2 5 u x 7 e 9 e q w u q 5 w f F M g = j u & X s p X   5 q > : < + b b 2 3 > ",
"2 r 3 & : 3 0 e 5 , 0 d 1 @ - 0 A k j 2 I  .0 4 % e t 4 : C g t 5 e w q u u a b I B s x g b h f 0 z d 6 5 - X %   $ * G C p 3 3 ",
"* 4 2 % ; 6 7 r = = 0 9 #   5 l 6 0 - $ Z % 9 b 3 4 > 4 u Q l 6 2 u p t y t s M i 9 w e n b G T D C q % , 1 1 y i u d x t c u N ",
"> ; = o 3 p 4 2 5 2 t 6 1 ; u s ; , s X.d 5 * g s 0 8 f C C 1 1 9 j c g s t e s 4 g j   ; 0 H E W E k - 7 V J C E G J u < k d H ",
": & = o 3 p - & y e h 0 y e f 3 $ : Z -.r M   < u J ] Z l ; X s g M v f s y 8 8 m h w 7 9 = i ] 1.W E &.+.S a i a k C h d y q 6 ",
"& - 7 & , q # - s i j , 5 8 d < 1 A I r P 6 } ~ J { ~ 5 M M 8 , n M d 9 w e 6 4 2 k i z M Y C I O.P H I B k y ; 4 5 % X > X a w ",
"$ < % + < : $ 2 4 > < 7 4 * & 1 C h v D n k J } a B u w t R P F m @ c 0 4 $ a ; : w k T S ;.n i y S p X = 4 & % w %   7 V A V I ",
". ; : 4 d i 3 5   ; u j i 5 5 e s u k l 8 ; 7 p x s i , n Y  .~ v k h   w r 8 , 8 R S / V  .i f * 1 ; < y t 0 g 1 y n F N 6 % 3 ",
"< 4 > 1 t r 5 5 w u u w r l H W r 0 r e < , 9 q N N P p 3 = N R b I D < > 2 - u b 8 1 p n.O.Y M G n k c x a i j c d 2 & ; * & 2 ",
"8 8 3 < 3 2 > , : 8 9 1 5 g C D 7 = - 3 1 3 9 8 T G M G i b F ^ L w 9 g 9 k y w < +   K b.i.*.) F x w &   # > & u j u : @ o & 7 ",
"& < w t 6 , ; & # 4 8 : - q h j w 1 6 w 1 : w j ~ Q L ' R } { #.S v ) w.^ P 5   & r q ( $.z.8.g ` G s - . - 7 3 s d 7 - 6 d b F ",
": < w q * @ - = u 7 & # 9 x j 7 q q y 8 # 3 L -.o.4.y.+.*.` X.#.J ;.i.<.n d 2 g p i C T Y  .X.6  .J s 8 1 & % 1 . + & a ^ { D p ",
"9 2 8 4 o @ 4 4 , & # 5 c B e   , r f 8 < v { %.2.k.r.^ <.&.' R * p } >./ E k 0 v N N +.: d u ) I H g r f y 6 t 3 e u s z j g n ",
", = 0 i 6 q d r 1 0 i y q r j M w D ( T W $.] d ^ B.6.H g l < y L 6 { 0.Z L ;.| &.R J g 9 w t ~ G ` C 5 i h 6 > w t p M U F z k ",
"6 , > c h 7 S ^ 0 % + 3 w 9 9 y e y t i M H j = N k.Z.u y  .L ;.J P 6.3.^ ;.h.f.@./ [ Z 5 f = S Y F ( v 1 7 * O @ % 8 ! 7.! q r ",
"2 < 9 ; c i L u > f q 3 a < @ j 8 1 > , < , 1 6 3 Q M S Q g j Z f 3 S } | +.D @ $ e C M 0 E W N < i K H i $ @ d _ P I x , s D u ",
"6 - 5 0 L z S i : 2 p p > ; q e 9 q w w 9 9 r p Z #.b B v = z c t x 3.e.E v f y m V ! =.S S S   w e 0 N T N v C I 5 9 a : e J Z ",
"< w e S C M a h 7 @ q i $ 8 x , > 0 7 > q n x 7 6 b H a w j p e Y D o.+.F m Z Y g w m o.( U F 2 9 e 3 g M J O.~ 2 i a r l K L V ",
"& m n l w c < % 8 i 9 , 9 y q 9 < 1 % . 1 k l 9 :   w q s N - < ^ y r z Z U S N 7 5 i u m J f * > + & y 6 z | n q c m x v N L | ",
"3 i j 5 a w + X : 8 e 5 , 6 y a 5 - > r p q 0 p z r 8 q q 6 9 d x w f h a h v L d 9 u e K ! C v u : p F a a C 6 c ; a ` Q N U o.",
"q 4 8 6 f 5   8 % # q t % > d p : @ 1 l k < & 6 - f r r 9 > h B i 8 u w 8 e e l K v b A ^ P E d i K :.| v s z F c m H ^ [ ( V w ",
"> k e 9 # y   0 & i 7 < p 6 * s 9 < 1 w u 0 5 7 y w 2 3 w 5 w L 0 3 r e y y > ; # e p s k S %.  f { %.m F { L ( l P k k Q t   u ",
"r < q 1 : a q +   i 5 o 8 q 6 M 9 y 1 1 p 5 % e u t 7 8 > + 1 r j 8 8 w s q @ 1 # 3 g 8 & - ` *.` } +.m 0 f i j 1 $ u x a q 6 p ",
"2 - 5 : > r 4 = t r w p j y r c F W x ; < 3 1 r r w < = * > 7 7 D y 1 < d j 2 4 & ; 9 N g p D L k M ~ Z j N d q , , g d 6 8 y b ",
"9 9 y 9 r i 7 p s 3 q a 4 > 9 q T Q k : 2 4 - > r 1 % $ : 6 t f k f g t a u & = 6 8 = f 7 p f u C V W G z B g > $ - r 1 & 0 t y ",
"3 4 6 : 2 : + y q u g 0 & 4 g f A u @ # 6 , O = < * 0 f s q 9 z w h V j h f 2 3 y N y 8 2 v D d 8 6 f d 0 g g : , 2 y 2 6 n s = ",
": ; - o # X   q - e 0 < w j n A b 5   X = % - w & t R L k e * 2 1 < < & w v y e   9 e < s z b - : 9 h v g x n w 1 6 a 5 9 M p + ",
"6 < 3 - ; : = u o X   1 m M j N i g g 0 - ; 7 y s P ..g - q - # $ * > & 9 g q r y j b B } D v , = e 8 6 5 5 y q 1 q x r 5 h d w ",
"9 ; 5 1 ; 4 < 3 > . * a v b c g 0 d m z 8 1 9 w F Z G : $ h 9 6 6 e h i s d 7 i M L C D T x t 4 2 l 3 , y i n F e u Z n g N Z H ",
"a 3 u r 3 e 7 - , % p f * 0 x < d , 1 t 7 ; 7 f b : 8 8 x P u p a 3 * O 3 e : 4 g } E I b c s f 7 A q 6 k w 8 r 3 ; a l z V M C "
};
